<svg viewBox="0 0 1000 1000" xmlns="http://www.w3.org/2000/svg"><defs><clipPath id="a"><path fill="currentColor" d="M868.5 638q11.5 138-106 223.5t-250.5 48Q379 872 243 829T101 643q-6-143 10.5-278t128-229q111.5-94 254-74T751 158q115 76 110.5 209t7 271Z"/></clipPath><pattern id="b" patternUnits="userSpaceOnUse" width="30" height="30" viewBox="0 0 100 100" fill="#FACC15"><circle cx="50" cy="50" r="12.5"/></pattern></defs><g clip-path="url(#a)"><path fill="url(#b)" d="M868.5 638q11.5 138-106 223.5t-250.5 48Q379 872 243 829T101 643q-6-143 10.5-278t128-229q111.5-94 254-74T751 158q115 76 110.5 209t7 271Z"/></g></svg>