<svg width="152" height="36" viewBox="0 0 152 36" fill="none" xmlns="http://www.w3.org/2000/svg">
<path fill-rule="evenodd" clip-rule="evenodd" d="M16.1669 5.17587C9.77117 0.455323 3.7189 -1.37237 1.22105 1.10642C-1.27681 3.58521 0.504448 9.6513 5.17583 16.083C0.455315 22.4789 -1.37236 28.5311 1.10642 31.029C3.58521 33.5268 9.65131 31.7455 16.0831 27.0741C22.4788 31.7947 28.5311 33.6224 31.0289 31.1436C33.5267 28.6648 31.7455 22.5987 27.0742 16.167C31.7947 9.77121 33.6224 3.71893 31.1436 1.22108C28.6648 -1.27677 22.5987 0.504478 16.1669 5.17587Z" fill="#EAB308"/>
<path d="M53.46 7.66C53.64 7.9 53.75 8.18 53.79 8.5C53.79 8.62 53.78 8.74 53.76 8.86C53.76 8.96 53.75 9.06 53.73 9.16C53.71 9.38 53.58 9.59 53.34 9.79C53.2 9.89 53.02 9.99 52.8 10.09C52.68 10.13 52.55 10.16 52.41 10.18C52.29 10.18 52.15 10.19 51.99 10.21C51.87 10.25 51.74 10.27 51.6 10.27C51.46 10.27 51.32 10.27 51.18 10.27H49.83L43.56 10.3V10.39L43.53 15.28C43.69 15.28 43.86 15.28 44.04 15.28C44.24 15.28 44.48 15.27 44.76 15.25C45.56 15.25 46.27 15.25 46.89 15.25C47.53 15.25 48.23 15.26 48.99 15.28H49.17C49.39 15.28 49.61 15.29 49.83 15.31C50.07 15.31 50.31 15.31 50.55 15.31C50.77 15.33 50.99 15.36 51.21 15.4C51.43 15.42 51.65 15.47 51.87 15.55C52.23 15.67 52.49 15.86 52.65 16.12C52.87 16.38 52.98 16.65 52.98 16.93C52.98 17.05 52.98 17.17 52.98 17.29C52.98 17.39 52.96 17.5 52.92 17.62C52.9 17.78 52.77 17.98 52.53 18.22C52.37 18.36 52.18 18.45 51.96 18.49C51.86 18.53 51.74 18.57 51.6 18.61C51.48 18.63 51.35 18.65 51.21 18.67C51.07 18.69 50.93 18.71 50.79 18.73C50.67 18.73 50.53 18.73 50.37 18.73H48.99L43.47 18.76L43.38 25.72V25.96C43.38 26.06 43.37 26.16 43.35 26.26C43.35 26.34 43.34 26.43 43.32 26.53C43.28 26.63 43.24 26.74 43.2 26.86C43.18 26.96 43.15 27.06 43.11 27.16C42.97 27.44 42.84 27.63 42.72 27.73C42.5 27.89 42.23 28 41.91 28.06C41.37 28.18 40.86 28.12 40.38 27.88C40.28 27.82 40.18 27.75 40.08 27.67C40 27.57 39.93 27.45 39.87 27.31C39.83 27.23 39.81 27.17 39.81 27.13L39.72 26.95C39.66 26.85 39.62 26.75 39.6 26.65C39.58 26.53 39.56 26.42 39.54 26.32C39.54 26.22 39.53 26.12 39.51 26.02C39.51 25.92 39.5 25.82 39.48 25.72C39.46 25.56 39.46 25.4 39.48 25.24V24.76L39.51 22.42L39.54 18.1C39.56 17.46 39.57 16.81 39.57 16.15C39.57 15.49 39.57 14.81 39.57 14.11C39.55 13.39 39.54 12.75 39.54 12.19C39.56 11.63 39.59 11.02 39.63 10.36V10.21C39.65 9.99 39.66 9.79 39.66 9.61C39.66 9.41 39.68 9.21 39.72 9.01C39.76 8.57 39.86 8.18 40.02 7.84C40.16 7.5 40.36 7.26 40.62 7.12C40.92 6.94 41.24 6.85 41.58 6.85C41.74 6.85 41.87 6.86 41.97 6.88V6.85C42.33 6.85 42.62 6.85 42.84 6.85C43.06 6.85 43.27 6.85 43.47 6.85C43.67 6.85 43.89 6.85 44.13 6.85C44.37 6.83 44.69 6.82 45.09 6.82C46.69 6.8 48.27 6.8 49.83 6.82H49.98C50.2 6.84 50.42 6.85 50.64 6.85C50.88 6.85 51.12 6.86 51.36 6.88C51.58 6.88 51.8 6.91 52.02 6.97C52.24 7.01 52.46 7.07 52.68 7.15C53.02 7.25 53.28 7.42 53.46 7.66ZM59.7584 25.6C59.7384 25.7 59.7184 25.8 59.6984 25.9C59.6984 25.98 59.6984 26.07 59.6984 26.17L59.5184 26.8C59.4784 26.88 59.4484 26.93 59.4284 26.95L59.3384 27.13C59.2384 27.35 59.0584 27.53 58.7984 27.67C58.3184 27.91 57.8084 27.97 57.2684 27.85C56.9284 27.81 56.6584 27.71 56.4584 27.55C56.2584 27.41 56.1184 27.24 56.0384 27.04C55.9584 26.84 55.8984 26.64 55.8584 26.44C55.7984 26.24 55.7684 26.06 55.7684 25.9V9.1C55.7684 8.96 55.7684 8.84 55.7684 8.74C55.7884 8.62 55.8084 8.51 55.8284 8.41C55.8484 8.27 55.8684 8.15 55.8884 8.05C55.9284 7.95 55.9684 7.84 56.0084 7.72C56.0684 7.52 56.1784 7.36 56.3384 7.24C56.5784 7.06 56.8084 6.96 57.0284 6.94C57.1684 6.9 57.2984 6.88 57.4184 6.88C57.5384 6.86 57.6784 6.85 57.8384 6.85C58.1184 6.85 58.4384 6.93 58.7984 7.09C59.0784 7.25 59.2784 7.47 59.3984 7.75C59.5984 8.15 59.6984 8.52 59.6984 8.86C59.7184 9.06 59.7284 9.36 59.7284 9.76C59.7484 10.16 59.7584 10.46 59.7584 10.66V10.78C59.7984 11.42 59.8184 12.04 59.8184 12.64C59.8184 13.22 59.8084 13.86 59.7884 14.56C59.7884 15.24 59.7784 15.9 59.7584 16.54C59.7584 17.16 59.7584 17.78 59.7584 18.4V24.7C59.7584 24.78 59.7584 24.86 59.7584 24.94C59.7784 25 59.7884 25.07 59.7884 25.15C59.7884 25.35 59.7784 25.5 59.7584 25.6ZM65.7237 15.37C66.3237 15.07 66.9537 14.86 67.6137 14.74C68.2737 14.6 68.9237 14.57 69.5637 14.65C70.2237 14.71 70.8537 14.88 71.4537 15.16C72.0537 15.42 72.6137 15.8 73.1337 16.3C73.6537 16.82 74.0537 17.39 74.3337 18.01C74.6137 18.63 74.8137 19.32 74.9337 20.08C75.0137 20.6 75.1437 21.08 75.3237 21.52C75.5037 21.96 75.6937 22.4 75.8937 22.84C76.1137 23.28 76.3137 23.72 76.4937 24.16C76.6937 24.6 76.8537 25.06 76.9737 25.54C77.0737 26 77.0337 26.45 76.8537 26.89C76.6937 27.31 76.3537 27.57 75.8337 27.67C75.5337 27.73 75.2437 27.71 74.9637 27.61C74.7037 27.49 74.4637 27.33 74.2437 27.13C74.0237 26.91 73.8237 26.68 73.6437 26.44C73.4837 26.18 73.3337 25.94 73.1937 25.72C72.7337 26.32 72.2337 26.79 71.6937 27.13C71.1537 27.45 70.5037 27.66 69.7437 27.76C69.1037 27.84 68.4937 27.86 67.9137 27.82C67.3337 27.78 66.7137 27.67 66.0537 27.49C65.1937 27.27 64.4837 26.89 63.9237 26.35C63.3837 25.79 62.9637 25.15 62.6637 24.43C62.3837 23.69 62.2337 22.9 62.2137 22.06C62.1937 21.22 62.2937 20.39 62.5137 19.57C62.7937 18.49 63.2137 17.61 63.7737 16.93C64.3337 16.25 64.9837 15.73 65.7237 15.37ZM66.4737 18.88C66.1937 19.16 65.9737 19.49 65.8137 19.87C65.6537 20.25 65.5537 20.65 65.5137 21.07C65.4937 21.49 65.5337 21.91 65.6337 22.33C65.7337 22.75 65.8937 23.12 66.1137 23.44C66.3137 23.72 66.6537 23.96 67.1337 24.16C67.6137 24.34 68.1137 24.45 68.6337 24.49C69.2337 24.53 69.7537 24.37 70.1937 24.01C70.6537 23.65 70.9937 23.2 71.2137 22.66C71.4537 22.1 71.5637 21.51 71.5437 20.89C71.5237 20.25 71.3537 19.67 71.0337 19.15C70.7937 18.77 70.4737 18.49 70.0737 18.31C69.6937 18.13 69.2837 18.04 68.8437 18.04C68.4037 18.02 67.9637 18.09 67.5237 18.25C67.1037 18.39 66.7537 18.6 66.4737 18.88ZM86.6395 22.72C86.2595 22.48 85.8295 22.29 85.3495 22.15C84.8895 22.01 84.4095 21.88 83.9095 21.76C83.4295 21.64 82.9595 21.51 82.4995 21.37C82.0395 21.21 81.6195 20.99 81.2395 20.71C80.4195 20.09 79.9395 19.33 79.7995 18.43C79.6795 17.51 79.8795 16.59 80.3995 15.67C80.6795 15.19 81.0495 14.8 81.5095 14.5C81.9695 14.18 82.4695 13.94 83.0095 13.78C83.5695 13.6 84.1395 13.5 84.7195 13.48C85.2995 13.46 85.8495 13.49 86.3695 13.57C86.7095 13.63 87.0695 13.72 87.4495 13.84C87.8295 13.94 88.1795 14.08 88.4995 14.26C88.8395 14.44 89.1395 14.67 89.3995 14.95C89.6795 15.21 89.8795 15.54 89.9995 15.94C90.0795 16.2 90.0895 16.45 90.0295 16.69C89.9895 16.93 89.8895 17.13 89.7295 17.29C89.5895 17.45 89.3995 17.57 89.1595 17.65C88.9395 17.73 88.6995 17.75 88.4395 17.71C88.1395 17.65 87.8595 17.56 87.5995 17.44C87.3395 17.32 87.0795 17.19 86.8195 17.05C86.5595 16.91 86.2895 16.79 86.0095 16.69C85.7495 16.59 85.4695 16.54 85.1695 16.54C84.7095 16.52 84.3295 16.6 84.0295 16.78C83.7295 16.96 83.5195 17.18 83.3995 17.44C83.2995 17.7 83.3095 17.98 83.4295 18.28C83.5695 18.58 83.8495 18.84 84.2695 19.06C84.6495 19.26 85.0695 19.42 85.5295 19.54C85.9895 19.66 86.4395 19.78 86.8795 19.9C87.3395 20.02 87.7795 20.16 88.1995 20.32C88.6395 20.48 89.0295 20.7 89.3695 20.98C90.0295 21.52 90.4295 22.15 90.5695 22.87C90.7295 23.59 90.6895 24.3 90.4495 25C90.2095 25.7 89.7895 26.32 89.1895 26.86C88.6095 27.4 87.9195 27.76 87.1195 27.94C86.5395 28.06 85.9095 28.12 85.2295 28.12C84.5695 28.12 83.9095 28.05 83.2495 27.91C82.6095 27.77 81.9895 27.55 81.3895 27.25C80.8095 26.95 80.3195 26.57 79.9195 26.11C79.6395 25.79 79.4895 25.43 79.4695 25.03C79.4695 24.61 79.5495 24.25 79.7095 23.95C79.8895 23.63 80.1395 23.41 80.4595 23.29C80.7795 23.17 81.1395 23.24 81.5395 23.5C81.8595 23.72 82.2395 23.94 82.6795 24.16C83.1195 24.36 83.5595 24.52 83.9995 24.64C84.4395 24.76 84.8595 24.82 85.2595 24.82C85.6795 24.82 86.0395 24.73 86.3395 24.55C86.7795 24.27 87.0095 23.95 87.0295 23.59C87.0495 23.21 86.9195 22.92 86.6395 22.72ZM104.793 22.09C104.813 22.49 104.823 22.91 104.823 23.35C104.823 23.77 104.813 24.16 104.793 24.52C104.773 25.06 104.743 25.56 104.703 26.02C104.663 26.46 104.583 26.84 104.463 27.16C104.343 27.46 104.153 27.69 103.893 27.85C103.653 27.99 103.313 28.03 102.873 27.97C102.413 27.91 102.083 27.69 101.883 27.31C101.683 26.93 101.543 26.5 101.463 26.02C101.403 25.52 101.383 25.02 101.403 24.52C101.423 24.02 101.423 23.63 101.403 23.35C101.383 22.91 101.363 22.41 101.343 21.85C101.343 21.27 101.283 20.73 101.163 20.23C101.063 19.71 100.883 19.27 100.623 18.91C100.363 18.55 99.9726 18.36 99.4526 18.34C98.7926 18.3 98.2826 18.35 97.9226 18.49C97.5826 18.63 97.3326 18.84 97.1726 19.12C97.0126 19.38 96.9126 19.7 96.8726 20.08C96.8526 20.46 96.8126 20.87 96.7526 21.31L96.7226 22.48V24.67C96.7226 25.03 96.7126 25.41 96.6926 25.81C96.6926 26.19 96.6326 26.54 96.5126 26.86C96.3926 27.18 96.2026 27.45 95.9426 27.67C95.7026 27.89 95.3426 28 94.8626 28C94.2626 28 93.8126 27.81 93.5126 27.43C93.2326 27.03 93.0926 26.54 93.0926 25.96V8.71C93.0926 8.59 93.0926 8.48 93.0926 8.38C93.1126 8.26 93.1326 8.14 93.1526 8.02C93.1926 7.9 93.2226 7.79 93.2426 7.69C93.2626 7.57 93.2926 7.46 93.3326 7.36C93.3926 7.16 93.4926 7.01 93.6326 6.91C93.7326 6.81 93.8326 6.73 93.9326 6.67C94.0326 6.61 94.1426 6.57 94.2626 6.55C94.3626 6.53 94.4726 6.52 94.5926 6.52C94.7126 6.5 94.8326 6.49 94.9526 6.49C95.2526 6.49 95.5426 6.58 95.8226 6.76C95.9426 6.84 96.0526 6.93 96.1526 7.03C96.2526 7.11 96.3326 7.23 96.3926 7.39C96.5526 7.77 96.6326 8.13 96.6326 8.47C96.6526 8.57 96.6626 8.72 96.6626 8.92C96.6826 9.1 96.6926 9.29 96.6926 9.49C96.6926 9.69 96.6926 9.89 96.6926 10.09C96.7126 10.27 96.7226 10.41 96.7226 10.51V10.66C96.7426 11.3 96.7526 11.95 96.7526 12.61C96.7526 13.27 96.7526 13.94 96.7526 14.62V15.13C97.5926 14.85 98.4726 14.72 99.3926 14.74C100.313 14.74 101.133 14.92 101.853 15.28C102.593 15.66 103.153 16.09 103.533 16.57C103.933 17.05 104.223 17.58 104.403 18.16C104.583 18.74 104.683 19.36 104.703 20.02C104.743 20.68 104.773 21.37 104.793 22.09ZM110.994 16.63C110.994 17.19 110.994 17.82 110.994 18.52C111.014 19.22 111.024 19.95 111.024 20.71C111.024 21.45 111.024 22.19 111.024 22.93C111.024 23.65 111.014 24.32 110.994 24.94C110.974 25.24 110.944 25.57 110.904 25.93C110.864 26.27 110.784 26.59 110.664 26.89C110.544 27.19 110.354 27.44 110.094 27.64C109.854 27.82 109.524 27.9 109.104 27.88C108.484 27.84 108.034 27.57 107.754 27.07C107.494 26.57 107.344 25.87 107.304 24.97C107.304 24.51 107.294 23.98 107.274 23.38C107.274 22.78 107.264 22.17 107.244 21.55C107.244 20.93 107.244 20.33 107.244 19.75C107.244 19.15 107.244 18.61 107.244 18.13C107.244 17.85 107.234 17.51 107.214 17.11C107.214 16.71 107.224 16.3 107.244 15.88C107.264 15.46 107.314 15.06 107.394 14.68C107.474 14.28 107.604 13.95 107.784 13.69C107.924 13.53 108.124 13.41 108.384 13.33C108.644 13.23 108.914 13.18 109.194 13.18C109.494 13.18 109.774 13.23 110.034 13.33C110.314 13.43 110.514 13.57 110.634 13.75C110.714 13.87 110.774 14.04 110.814 14.26C110.854 14.48 110.884 14.73 110.904 15.01C110.944 15.27 110.964 15.55 110.964 15.85C110.984 16.13 110.994 16.39 110.994 16.63ZM109.854 10.57C109.234 10.73 108.714 10.67 108.294 10.39C107.894 10.09 107.644 9.65 107.544 9.07C107.464 8.65 107.494 8.28 107.634 7.96C107.774 7.64 107.984 7.4 108.264 7.24C108.544 7.06 108.864 6.98 109.224 7C109.584 7.02 109.944 7.16 110.304 7.42C110.644 7.66 110.884 7.94 111.024 8.26C111.184 8.58 111.234 8.89 111.174 9.19C111.134 9.49 111.004 9.77 110.784 10.03C110.564 10.27 110.254 10.45 109.854 10.57ZM122.24 15.31C122.58 15.41 122.8 15.6 122.9 15.88C123 16.14 123.03 16.42 122.99 16.72C122.87 17.34 122.53 17.72 121.97 17.86C121.65 17.94 121.32 17.98 120.98 17.98C120.66 17.98 120.33 17.99 119.99 18.01V24.94C119.99 25.42 119.96 25.91 119.9 26.41C119.9 26.59 119.85 26.78 119.75 26.98C119.71 27.08 119.68 27.14 119.66 27.16C119.66 27.2 119.64 27.26 119.6 27.34C119.48 27.56 119.32 27.74 119.12 27.88C118.68 28.12 118.21 28.18 117.71 28.06C117.41 28 117.18 27.9 117.02 27.76C116.84 27.62 116.71 27.45 116.63 27.25C116.59 27.15 116.56 27.05 116.54 26.95C116.52 26.85 116.49 26.75 116.45 26.65C116.43 26.55 116.41 26.46 116.39 26.38C116.39 26.28 116.39 26.2 116.39 26.14V24.4C116.39 23.36 116.39 22.28 116.39 21.16C116.41 20.04 116.42 18.96 116.42 17.92C115.96 17.9 115.48 17.89 114.98 17.89C114.5 17.87 114.15 17.75 113.93 17.53C113.81 17.41 113.73 17.26 113.69 17.08C113.65 16.88 113.63 16.68 113.63 16.48C113.65 16.28 113.69 16.1 113.75 15.94C113.81 15.76 113.89 15.63 113.99 15.55C114.25 15.31 114.48 15.18 114.68 15.16C114.9 15.12 115.17 15.09 115.49 15.07C115.53 15.07 115.66 15.07 115.88 15.07C116.12 15.05 116.27 15.04 116.33 15.04C116.35 14.36 116.37 13.68 116.39 13C116.41 12.32 116.47 11.7 116.57 11.14C116.69 10.56 116.86 10.06 117.08 9.64C117.32 9.2 117.68 8.87 118.16 8.65C118.74 8.39 119.4 8.23 120.14 8.17C120.88 8.11 121.55 8.2 122.15 8.44C122.43 8.54 122.7 8.74 122.96 9.04C123.24 9.34 123.37 9.67 123.35 10.03C123.33 10.39 123.26 10.72 123.14 11.02C123.02 11.32 122.76 11.52 122.36 11.62C122.18 11.66 121.99 11.68 121.79 11.68C121.61 11.66 121.42 11.65 121.22 11.65C121.02 11.65 120.83 11.68 120.65 11.74C120.49 11.78 120.35 11.87 120.23 12.01C120.13 12.13 120.06 12.29 120.02 12.49C120 12.69 119.98 12.9 119.96 13.12C119.94 13.34 119.93 13.56 119.93 13.78C119.95 13.98 119.96 14.15 119.96 14.29V15.04C120.42 15.08 120.84 15.11 121.22 15.13C121.62 15.15 121.96 15.21 122.24 15.31ZM139.558 14.62C139.738 14.9 139.818 15.2 139.798 15.52C139.798 15.98 139.718 16.38 139.558 16.72C139.518 16.82 139.458 16.95 139.378 17.11C139.318 17.27 139.248 17.44 139.168 17.62C139.108 17.8 139.038 17.97 138.958 18.13C138.878 18.29 138.818 18.41 138.778 18.49L138.718 18.64C138.438 19.26 138.168 19.86 137.908 20.44C137.648 21.02 137.358 21.64 137.038 22.3C136.718 22.94 136.408 23.57 136.108 24.19C135.828 24.79 135.548 25.38 135.268 25.96C135.188 26.12 135.118 26.28 135.058 26.44C134.998 26.58 134.918 26.73 134.818 26.89L133.378 29.98C133.118 30.5 132.868 31.01 132.628 31.51C132.408 32.01 132.158 32.51 131.878 33.01C131.818 33.11 131.758 33.2 131.698 33.28C131.658 33.38 131.618 33.48 131.578 33.58C131.438 33.82 131.228 34.05 130.948 34.27C130.688 34.51 130.408 34.64 130.108 34.66C129.568 34.7 129.098 34.54 128.698 34.18C128.458 34.04 128.268 33.84 128.128 33.58C128.048 33.4 128.008 33.17 128.008 32.89C128.028 32.77 128.038 32.65 128.038 32.53C128.058 32.43 128.078 32.33 128.098 32.23C128.138 32.13 128.168 32.03 128.188 31.93C128.208 31.83 128.238 31.75 128.278 31.69C128.338 31.53 128.388 31.45 128.428 31.45L130.618 26.71C130.518 26.49 130.418 26.27 130.318 26.05C130.218 25.81 130.128 25.6 130.048 25.42C129.788 24.8 129.508 24.15 129.208 23.47C128.928 22.77 128.638 22.08 128.338 21.4C128.038 20.7 127.728 20.02 127.408 19.36C127.088 18.7 126.768 18.07 126.448 17.47C126.328 17.27 126.218 17.06 126.118 16.84C126.018 16.6 125.938 16.37 125.878 16.15C125.818 15.91 125.798 15.67 125.818 15.43C125.838 15.19 125.928 14.95 126.088 14.71C126.248 14.41 126.458 14.2 126.718 14.08C126.978 13.94 127.248 13.88 127.528 13.9C127.828 13.9 128.108 13.96 128.368 14.08C128.628 14.2 128.838 14.36 128.998 14.56C129.338 14.92 129.608 15.32 129.808 15.76C130.008 16.2 130.198 16.65 130.378 17.11C130.758 17.91 131.148 18.75 131.548 19.63C131.948 20.51 132.348 21.37 132.748 22.21L134.308 18.91C134.468 18.59 134.608 18.28 134.728 17.98C134.868 17.68 135.008 17.39 135.148 17.11C135.308 16.77 135.458 16.42 135.598 16.06C135.758 15.7 135.938 15.37 136.138 15.07C136.178 14.99 136.218 14.92 136.258 14.86C136.298 14.8 136.338 14.73 136.378 14.65C136.558 14.41 136.718 14.22 136.858 14.08C136.958 14 137.038 13.94 137.098 13.9C137.178 13.84 137.268 13.8 137.368 13.78C137.508 13.74 137.638 13.72 137.758 13.72C137.898 13.7 138.028 13.7 138.148 13.72C138.348 13.78 138.588 13.87 138.868 13.99C139.168 14.11 139.398 14.32 139.558 14.62Z" fill="#111"/>
</svg>
